<svg width="48" height="62" viewBox="0 0 48 62" fill="none" xmlns="http://www.w3.org/2000/svg">
<path d="M23.4343 23.8196C22.6787 23.064 21.4503 23.0601 20.6908 23.8158L14.3125 30.1979L11.8093 27.6908C11.0537 26.9351 9.82527 26.9351 9.06965 27.6908C8.31402 28.4464 8.31402 29.6748 9.06965 30.4304L12.9446 34.3054C13.3205 34.6851 13.8165 34.875 14.3125 34.875C14.8085 34.875 15.3045 34.6851 15.6843 34.3093L23.4343 26.5593C24.1899 25.8036 24.1899 24.5753 23.4343 23.8196Z" fill="white"/>
<path d="M23.4343 39.3196C22.6787 38.564 21.4503 38.5601 20.6908 39.3158L14.3125 45.6979L11.8093 43.1946C11.0537 42.439 9.82527 42.439 9.06965 43.1946C8.31402 43.9503 8.31402 45.1786 9.06965 45.9343L12.9446 49.8093C13.3205 50.1851 13.8165 50.375 14.3125 50.375C14.8085 50.375 15.3045 50.1851 15.6843 49.8093L23.4343 42.0593C24.1899 41.3036 24.1899 40.0753 23.4343 39.3196Z" fill="white"/>
<path d="M37.5625 27.125H29.8125C28.743 27.125 27.875 27.993 27.875 29.0625C27.875 30.132 28.743 31 29.8125 31H37.5625C38.632 31 39.5 30.132 39.5 29.0625C39.5 27.993 38.632 27.125 37.5625 27.125Z" fill="white"/>
<path d="M37.5625 42.625H29.8125C28.743 42.625 27.875 43.493 27.875 44.5625C27.875 45.632 28.743 46.5 29.8125 46.5H37.5625C38.632 46.5 39.5 45.632 39.5 44.5625C39.5 43.493 38.632 42.625 37.5625 42.625Z" fill="white"/>
<path d="M43.375 7.75H35.625V5.8125C35.625 4.743 34.757 3.875 33.6875 3.875H29.4831C28.681 1.61975 26.5265 0 24 0C21.4735 0 19.319 1.61975 18.5169 3.875H14.3125C13.243 3.875 12.375 4.743 12.375 5.8125V7.75H4.625C2.48987 7.75 0.75 9.48987 0.75 11.625V58.125C0.75 60.2601 2.48987 62 4.625 62H43.375C45.5101 62 47.25 60.2601 47.25 58.125V11.625C47.25 9.48987 45.5101 7.75 43.375 7.75ZM16.25 7.75H20.125C21.1945 7.75 22.0625 6.882 22.0625 5.8125C22.0625 4.743 22.9305 3.875 24 3.875C25.0695 3.875 25.9375 4.743 25.9375 5.8125C25.9375 6.882 26.8055 7.75 27.875 7.75H31.75V11.625H16.25V7.75ZM43.375 58.125H4.625V11.625H12.375V13.5625C12.375 14.632 13.243 15.5 14.3125 15.5H33.6875C34.757 15.5 35.625 14.632 35.625 13.5625V11.625H43.375V58.125Z" fill="white"/>
</svg>
