<svg width="199" height="63" viewBox="0 0 199 63" fill="none" xmlns="http://www.w3.org/2000/svg">
<path d="M15 38.2C12.7333 38.2 10.8 37.8267 9.2 37.08C7.62667 36.3067 6.34667 35.2533 5.36 33.92C4.4 32.5867 3.69333 31.08 3.24 29.4C2.78667 27.6933 2.56 25.92 2.56 24.08V9.6H8.08V24.08C8.08 25.6533 8.29333 27.1467 8.72 28.56C9.14667 29.9733 9.86667 31.12 10.88 32C11.8933 32.88 13.2533 33.32 14.96 33.32C16.72 33.32 18.1067 32.88 19.12 32C20.1333 31.0933 20.8533 29.9333 21.28 28.52C21.7067 27.1067 21.92 25.6267 21.92 24.08V9.6H27.4V24.08C27.4 26.0267 27.16 27.8533 26.68 29.56C26.2267 31.2667 25.4933 32.7733 24.48 34.08C23.4933 35.36 22.2133 36.3733 20.64 37.12C19.0667 37.84 17.1867 38.2 15 38.2ZM38.48 19.76V38H32.96V9.6H37.36L52.04 28.32V9.64H57.56V38H52.96L38.48 19.76ZM63.4678 38V9.6H68.9878V38H63.4678ZM77.8331 9.6L85.5131 31.44L93.1131 9.6H98.9131L88.1531 38H82.8331L72.0331 9.6H77.8331ZM121.664 33.16V38H101.944V9.6H121.304V14.44H107.464V21.28H119.424V25.76H107.464V33.16H121.664ZM125.968 38V9.6H138.528C139.834 9.6 141.034 9.86666 142.128 10.4C143.248 10.9333 144.208 11.6533 145.008 12.56C145.834 13.4667 146.461 14.48 146.888 15.6C147.341 16.72 147.568 17.8667 147.568 19.04C147.568 20.8533 147.101 22.52 146.168 24.04C145.261 25.56 144.021 26.6533 142.448 27.32L148.928 38H142.848L137.008 28.48H131.488V38H125.968ZM131.488 23.64H138.408C139.448 23.64 140.301 23.2 140.968 22.32C141.661 21.4133 142.008 20.32 142.008 19.04C142.008 18.16 141.821 17.3733 141.448 16.68C141.074 15.9867 140.594 15.44 140.008 15.04C139.448 14.64 138.834 14.44 138.168 14.44H131.488V23.64ZM169.489 17.04C169.249 16.7733 168.743 16.4267 167.969 16C167.196 15.5467 166.263 15.1467 165.169 14.8C164.103 14.4267 162.996 14.24 161.849 14.24C158.836 14.24 157.329 15.3067 157.329 17.44C157.329 18.2133 157.569 18.8267 158.049 19.28C158.529 19.7333 159.249 20.12 160.209 20.44C161.169 20.76 162.369 21.1067 163.809 21.48C165.676 21.96 167.289 22.52 168.649 23.16C170.036 23.8 171.089 24.6533 171.809 25.72C172.556 26.76 172.929 28.1467 172.929 29.88C172.929 31.9067 172.436 33.5467 171.449 34.8C170.489 36.0267 169.209 36.92 167.609 37.48C166.009 38.04 164.276 38.32 162.409 38.32C160.276 38.32 158.156 38 156.049 37.36C153.969 36.6933 152.116 35.7867 150.489 34.64L152.929 29.88C153.169 30.12 153.596 30.44 154.209 30.84C154.823 31.2133 155.569 31.6 156.449 32C157.329 32.3733 158.289 32.6933 159.329 32.96C160.369 33.2267 161.423 33.36 162.489 33.36C165.529 33.36 167.049 32.3867 167.049 30.44C167.049 29.6133 166.743 28.9467 166.129 28.44C165.516 27.9333 164.649 27.5067 163.529 27.16C162.436 26.8133 161.156 26.4267 159.689 26C157.876 25.4933 156.369 24.9333 155.169 24.32C153.996 23.68 153.116 22.8933 152.529 21.96C151.943 21 151.649 19.7867 151.649 18.32C151.649 16.3733 152.103 14.7467 153.009 13.44C153.943 12.1067 155.196 11.1067 156.769 10.44C158.343 9.74667 160.089 9.4 162.009 9.4C163.983 9.4 165.823 9.72 167.529 10.36C169.236 11 170.703 11.7333 171.929 12.56L169.489 17.04ZM196.821 33.16V38H177.101V9.6H196.461V14.44H182.621V21.28H194.581V25.76H182.621V33.16H196.821Z" fill="white"/>
<path d="M156.57 56.255C156.57 56.825 156.42 57.315 156.12 57.725C155.82 58.135 155.42 58.45 154.92 58.67C154.43 58.89 153.885 59 153.285 59H148.2V48.35H153.69C154.19 48.35 154.62 48.485 154.98 48.755C155.34 49.015 155.62 49.355 155.82 49.775C156.02 50.195 156.12 50.625 156.12 51.065C156.12 51.585 155.985 52.075 155.715 52.535C155.455 52.985 155.08 53.32 154.59 53.54C155.19 53.72 155.67 54.05 156.03 54.53C156.39 55 156.57 55.575 156.57 56.255ZM149.88 49.805V52.94H152.97C153.39 52.94 153.74 52.795 154.02 52.505C154.3 52.205 154.44 51.83 154.44 51.38C154.44 50.92 154.31 50.545 154.05 50.255C153.79 49.955 153.46 49.805 153.06 49.805H149.88ZM154.845 55.94C154.845 55.5 154.705 55.115 154.425 54.785C154.155 54.455 153.81 54.29 153.39 54.29H149.88V57.545H153.285C153.725 57.545 154.095 57.39 154.395 57.08C154.695 56.76 154.845 56.38 154.845 55.94ZM162.747 59.075C161.987 59.075 161.292 58.925 160.662 58.625C160.042 58.325 159.507 57.92 159.057 57.41C158.607 56.89 158.257 56.31 158.007 55.67C157.767 55.02 157.647 54.355 157.647 53.675C157.647 52.965 157.777 52.29 158.037 51.65C158.297 51 158.657 50.425 159.117 49.925C159.577 49.415 160.117 49.015 160.737 48.725C161.367 48.425 162.047 48.275 162.777 48.275C163.537 48.275 164.227 48.43 164.847 48.74C165.477 49.05 166.012 49.465 166.452 49.985C166.902 50.505 167.247 51.085 167.487 51.725C167.737 52.365 167.862 53.02 167.862 53.69C167.862 54.4 167.732 55.08 167.472 55.73C167.222 56.37 166.867 56.945 166.407 57.455C165.947 57.955 165.402 58.35 164.772 58.64C164.152 58.93 163.477 59.075 162.747 59.075ZM159.357 53.675C159.357 54.345 159.497 54.98 159.777 55.58C160.057 56.17 160.447 56.65 160.947 57.02C161.457 57.38 162.062 57.56 162.762 57.56C163.292 57.56 163.767 57.45 164.187 57.23C164.607 57.01 164.962 56.715 165.252 56.345C165.542 55.965 165.762 55.545 165.912 55.085C166.062 54.625 166.137 54.155 166.137 53.675C166.137 53.005 165.997 52.375 165.717 51.785C165.447 51.195 165.057 50.72 164.547 50.36C164.037 49.99 163.442 49.805 162.762 49.805C162.222 49.805 161.742 49.915 161.322 50.135C160.902 50.355 160.547 50.65 160.257 51.02C159.967 51.39 159.742 51.805 159.582 52.265C159.432 52.725 159.357 53.195 159.357 53.675ZM174.026 59.075C173.266 59.075 172.571 58.925 171.941 58.625C171.321 58.325 170.786 57.92 170.336 57.41C169.886 56.89 169.536 56.31 169.286 55.67C169.046 55.02 168.926 54.355 168.926 53.675C168.926 52.965 169.056 52.29 169.316 51.65C169.576 51 169.936 50.425 170.396 49.925C170.856 49.415 171.396 49.015 172.016 48.725C172.646 48.425 173.326 48.275 174.056 48.275C174.816 48.275 175.506 48.43 176.126 48.74C176.756 49.05 177.291 49.465 177.731 49.985C178.181 50.505 178.526 51.085 178.766 51.725C179.016 52.365 179.141 53.02 179.141 53.69C179.141 54.4 179.011 55.08 178.751 55.73C178.501 56.37 178.146 56.945 177.686 57.455C177.226 57.955 176.681 58.35 176.051 58.64C175.431 58.93 174.756 59.075 174.026 59.075ZM170.636 53.675C170.636 54.345 170.776 54.98 171.056 55.58C171.336 56.17 171.726 56.65 172.226 57.02C172.736 57.38 173.341 57.56 174.041 57.56C174.571 57.56 175.046 57.45 175.466 57.23C175.886 57.01 176.241 56.715 176.531 56.345C176.821 55.965 177.041 55.545 177.191 55.085C177.341 54.625 177.416 54.155 177.416 53.675C177.416 53.005 177.276 52.375 176.996 51.785C176.726 51.195 176.336 50.72 175.826 50.36C175.316 49.99 174.721 49.805 174.041 49.805C173.501 49.805 173.021 49.915 172.601 50.135C172.181 50.355 171.826 50.65 171.536 51.02C171.246 51.39 171.021 51.805 170.861 52.265C170.711 52.725 170.636 53.195 170.636 53.675ZM187.166 50.855C187.036 50.705 186.821 50.55 186.521 50.39C186.231 50.22 185.891 50.075 185.501 49.955C185.111 49.835 184.706 49.775 184.286 49.775C183.576 49.775 183.051 49.905 182.711 50.165C182.381 50.425 182.216 50.785 182.216 51.245C182.216 51.585 182.311 51.855 182.501 52.055C182.691 52.245 182.981 52.41 183.371 52.55C183.761 52.68 184.251 52.815 184.841 52.955C185.561 53.125 186.181 53.33 186.701 53.57C187.231 53.8 187.636 54.11 187.916 54.5C188.206 54.89 188.351 55.405 188.351 56.045C188.351 56.775 188.176 57.365 187.826 57.815C187.476 58.265 187.001 58.595 186.401 58.805C185.811 59.005 185.161 59.105 184.451 59.105C183.641 59.105 182.856 58.98 182.096 58.73C181.336 58.48 180.656 58.125 180.056 57.665L180.821 56.225C180.991 56.395 181.261 56.59 181.631 56.81C182.001 57.02 182.431 57.205 182.921 57.365C183.421 57.515 183.941 57.59 184.481 57.59C185.141 57.59 185.651 57.475 186.011 57.245C186.371 57.005 186.551 56.665 186.551 56.225C186.551 55.865 186.431 55.58 186.191 55.37C185.961 55.15 185.626 54.97 185.186 54.83C184.756 54.68 184.236 54.525 183.626 54.365C182.926 54.185 182.341 53.98 181.871 53.75C181.401 53.52 181.046 53.23 180.806 52.88C180.576 52.53 180.461 52.075 180.461 51.515C180.461 50.815 180.631 50.225 180.971 49.745C181.311 49.255 181.771 48.89 182.351 48.65C182.941 48.4 183.601 48.275 184.331 48.275C185.051 48.275 185.716 48.39 186.326 48.62C186.936 48.85 187.471 49.135 187.931 49.475L187.166 50.855ZM197.851 49.835H194.311V59H192.616V49.835H189.061V48.35H197.851V49.835Z" fill="#FF1469"/>
</svg>
