<svg width="24" height="22" viewBox="0 0 24 22" fill="none" xmlns="http://www.w3.org/2000/svg">
<path d="M22.7999 8.8H13.2001V-0.800073C13.2001 -1.46233 12.6624 -2 11.9999 -2C11.3377 -2 10.8 -1.46233 10.8 -0.800073V8.8H1.19993C0.537671 8.8 0 9.33767 0 9.99993C0 10.6624 0.537671 11.2001 1.19993 11.2001H10.8V20.7999C10.8 21.4624 11.3377 22.0001 11.9999 22.0001C12.6624 22.0001 13.2001 21.4624 13.2001 20.7999V11.2001H22.7999C23.4624 11.2001 24.0001 10.6624 24.0001 9.99993C24.0001 9.33767 23.4624 8.8 22.7999 8.8Z" fill="white"/>
</svg>
