<svg width="60" height="60" viewBox="0 0 60 60" fill="none" xmlns="http://www.w3.org/2000/svg">
<path d="M58.9703 21.8939L56.0358 18.9594C54.665 17.5886 52.4347 17.5888 51.0639 18.9594L44.8828 25.1405V5.27344C44.8828 2.36566 42.5172 0 39.6094 0H5.27344C2.36566 0 0 2.36566 0 5.27344V54.7266C0 57.6343 2.36566 60 5.27344 60H39.6094C42.5172 60 44.8828 57.6343 44.8828 54.7266V40.7774L58.9703 26.8658C60.341 25.4951 60.341 23.2646 58.9703 21.8939ZM37.947 42.6857L32.6592 45.1534L35.1245 39.8708L48.2466 26.7487L51.1478 29.6498L37.947 42.6857ZM41.3672 54.7266C41.3672 55.6958 40.5786 56.4844 39.6094 56.4844H5.27344C4.30418 56.4844 3.51563 55.6958 3.51563 54.7266V5.27344C3.51563 4.30418 4.30418 3.51562 5.27344 3.51562H39.6094C40.5786 3.51562 41.3672 4.30418 41.3672 5.27344V28.6561C31.6196 38.4036 32.2562 37.7033 32.0695 38.1033L27.4291 48.0471C27.1166 48.7171 27.2564 49.5108 27.7791 50.0334C28.3017 50.5562 29.0958 50.6959 29.7654 50.3834L39.7092 45.7429C40.0738 45.5727 40.1338 45.467 41.3672 44.2489V54.7266ZM53.6491 27.1796L50.7323 24.2629L53.5499 21.4453L56.4834 24.3807L53.6491 27.1796Z" fill="white"/>
<path d="M9.37463 14.8828H35.6246C36.5954 14.8828 37.3824 14.0958 37.3824 13.125C37.3824 12.1542 36.5954 11.3672 35.6246 11.3672H9.37463C8.40385 11.3672 7.61682 12.1542 7.61682 13.125C7.61682 14.0958 8.40385 14.8828 9.37463 14.8828Z" fill="white"/>
<path d="M9.37463 24.2578H29.9996C30.9704 24.2578 31.7574 23.4708 31.7574 22.5C31.7574 21.5292 30.9704 20.7422 29.9996 20.7422H9.37463C8.40385 20.7422 7.61682 21.5292 7.61682 22.5C7.61682 23.4708 8.40385 24.2578 9.37463 24.2578Z" fill="white"/>
<path d="M24.3746 30.1172H9.37463C8.40385 30.1172 7.61682 30.9042 7.61682 31.875C7.61682 32.8458 8.40385 33.6328 9.37463 33.6328H24.3746C25.3454 33.6328 26.1324 32.8458 26.1324 31.875C26.1324 30.9042 25.3454 30.1172 24.3746 30.1172Z" fill="white"/>
</svg>
