<svg width="68" height="67" viewBox="0 0 68 67" fill="none" xmlns="http://www.w3.org/2000/svg">
<path d="M63.3914 45.3783H64.7097C66.5237 45.3783 68 43.9231 68 42.135C68 40.3469 66.5237 38.8917 64.7097 38.8917H64.1832L64.7843 37.5177C65.9117 34.9436 65.7099 31.9706 64.2468 29.5663C63.319 28.0419 61.9623 26.8473 60.3215 26.1122L57.2604 24.7381C53.6465 23.1165 49.2156 23.59 46.0393 25.9382L44.3097 27.216L44.3119 27.2192C42.6009 27.6592 41.0906 28.7447 40.1628 30.269C39.8765 30.7393 39.6583 31.2344 39.497 31.7436L39.4839 31.7371V28.7803C42.149 27.2549 44.1123 24.6636 44.7462 21.5943H46.0645C47.8786 21.5943 49.3548 20.1392 49.3548 18.3511C49.3548 16.563 47.8786 15.1078 46.0645 15.1078H45.5381L46.1391 13.7338C47.2666 11.1597 47.0648 8.1867 45.6017 5.78237C44.6738 4.25803 43.3171 3.06343 41.6763 2.32829L38.6152 0.954232C35.0014 -0.667398 30.5704 -0.192801 27.3941 2.15424L25.6645 3.43208L25.6667 3.43533C23.9557 3.87533 22.4455 4.96074 21.5176 6.48507C20.3101 8.46995 20.2157 10.8905 21.2654 12.9608L22.3545 15.1078H21.9355C20.1214 15.1078 18.6452 16.563 18.6452 18.3511C18.6452 20.1392 20.1214 21.5943 21.9355 21.5943H23.2538C23.8877 24.6636 25.851 27.2549 28.5161 28.7803V31.7371L27.9557 32.0139C27.7484 31.162 27.4237 30.3339 26.9565 29.5663C26.0286 28.0419 24.6719 26.8473 23.0312 26.1122L19.9701 24.7381C16.3562 23.1165 11.9252 23.59 8.74897 25.9382L7.01936 27.216L7.02155 27.2192C5.31058 27.6592 3.80032 28.7447 2.87245 30.269C1.6649 32.2539 1.57058 34.6744 2.62019 36.7447L3.70929 38.8917H3.29032C1.47626 38.8917 0 40.3469 0 42.135C0 43.9231 1.47626 45.3783 3.29032 45.3783H4.60865C5.24258 48.4475 7.20581 51.0388 9.87097 52.5642V55.2616L2.02684 56.4508C1.49161 56.5329 1.09677 56.9859 1.09677 57.5199V65.9189C1.09677 66.5157 1.58813 67 2.19355 67H14.2581H16.4516H30.7097H51.5484H53.7419H65.8065C66.4119 67 66.9032 66.5157 66.9032 65.9189V57.5199C66.9032 56.9859 66.5084 56.5329 65.9732 56.4518L58.129 55.2616V52.5642C60.7942 51.0388 62.7574 48.4475 63.3914 45.3783V45.3783ZM61.4194 43.2161C61.4194 47.9848 57.483 51.8648 52.6452 51.8648C47.8073 51.8648 43.871 47.9848 43.871 43.2161V39.1469L45.3604 36.2096L46.0645 36.7296C47.951 38.1242 50.2882 38.8917 52.6452 38.8917C55.0021 38.8917 57.3394 38.1242 59.2258 36.7296L59.9299 36.2096L61.4194 39.1469V43.2161ZM47.1613 55.2616L37.4428 56.7351C36.1606 56.9297 34.9838 57.4313 33.9901 58.1697C32.9844 57.4237 31.8185 56.9264 30.5572 56.7351L20.8387 55.2616V52.5642C21.2204 52.3459 21.5845 52.1048 21.9355 51.8442V51.8648H46.0645V51.8442C46.4155 52.1048 46.7796 52.3459 47.1613 52.5642V55.2616ZM33.2246 37.4939C33.4385 37.7047 33.7192 37.8106 34 37.8106C34.2808 37.8106 34.5616 37.7047 34.7754 37.4939L35.7143 36.5685L36.0806 37.6506L34.51 39.9728H33.49L31.9194 37.6506L32.2857 36.5685L33.2246 37.4939ZM38.6032 33.7209L39.2031 34.0171C39.2437 34.9501 39.4707 35.8787 39.9105 36.7458L40.9996 38.8917H40.5806C38.7666 38.8917 37.2903 40.3469 37.2903 42.135C37.2903 43.9231 38.7666 45.3783 40.5806 45.3783H41.899C42.2302 46.9783 42.9299 48.4431 43.8918 49.7026H36.391L37.275 44.4756C37.3046 44.3015 37.2903 44.1231 37.2333 43.9555L36.3065 41.2139L38.2028 38.4107C38.3904 38.1328 38.4376 37.7858 38.3312 37.469L37.4483 34.8593L38.6032 33.7209ZM41.6774 43.2161H40.5806C39.9763 43.2161 39.4839 42.7307 39.4839 42.135C39.4839 41.5393 39.9763 41.0539 40.5806 41.0539H41.6774V43.2161ZM32.9328 44.3847L33.694 42.135H34.306L35.0672 44.3847L34.1678 49.7026H33.8322L32.9328 44.3847ZM65.8065 42.135C65.8065 42.7307 65.314 43.2161 64.7097 43.2161H63.6129V41.0539H64.7097C65.314 41.0539 65.8065 41.5393 65.8065 42.135ZM42.0437 31.3814C42.8773 30.0128 44.4018 29.162 46.0206 29.162C47.7404 29.162 49.3362 30.0041 50.2915 31.4139L50.6359 31.9231L52.4609 30.7241L52.1165 30.2149C51.1272 28.7533 49.6521 27.7263 47.9795 27.2701C50.4626 25.7522 53.6794 25.5057 56.3512 26.7046L59.4123 28.0787C60.6461 28.6322 61.6672 29.5306 62.3659 30.6776C63.467 32.4863 63.6184 34.7231 62.7706 36.6604L62.6971 36.829L61.3042 34.0831C61.1583 33.7966 60.8918 33.5879 60.5748 33.5144C60.259 33.4409 59.9256 33.509 59.6645 33.7014L57.9097 34.9987C56.4005 36.1155 54.5305 36.7296 52.6452 36.7296C50.7598 36.7296 48.8898 36.1155 47.3806 34.9998L45.6258 33.7025C45.3648 33.509 45.0303 33.4398 44.7155 33.5155C44.3985 33.589 44.132 33.7977 43.9861 34.0841L42.5 37.015L41.8726 35.7782C41.1597 34.3728 41.2234 32.7285 42.0437 31.3814V31.3814ZM47.1613 18.3511C47.1613 18.9468 46.6688 19.4322 46.0645 19.4322H44.9677V17.27H46.0645C46.6688 17.27 47.1613 17.7554 47.1613 18.3511ZM23.3986 7.59751C24.2321 6.22886 25.7566 5.37804 27.3755 5.37804C29.0952 5.37804 30.691 6.22021 31.6463 7.62994L31.9907 8.13914L33.8157 6.94021L33.4714 6.43102C32.4821 4.96939 31.0069 3.94236 29.3343 3.48614C31.8163 1.96829 35.0343 1.7218 37.706 2.92073L40.7671 4.29479C42.001 4.84831 43.0221 5.74669 43.7207 6.89372C44.8219 8.70238 44.9732 10.9392 44.1254 12.8765L44.0519 13.0451L42.659 10.2991C42.5132 10.0127 42.2466 9.80401 41.9297 9.7305C41.6138 9.6559 41.2804 9.72509 41.0194 9.91752L39.2645 11.2148C37.7554 12.3316 35.8854 12.9456 34 12.9456C32.1146 12.9456 30.2446 12.3316 28.7355 11.2159L26.9806 9.91861C26.7207 9.72509 26.3862 9.6559 26.0703 9.73158C25.7534 9.80509 25.4868 10.0137 25.341 10.3002L23.8548 13.2311L23.2275 11.9943C22.5146 10.5889 22.5782 8.94455 23.3986 7.59751V7.59751ZM21.9355 19.4322C21.3312 19.4322 20.8387 18.9468 20.8387 18.3511C20.8387 17.7554 21.3312 17.27 21.9355 17.27H23.0323V19.4322H21.9355ZM25.2258 19.4322V15.363L26.7152 12.4256L27.4194 12.9456C29.3058 14.3403 31.643 15.1078 34 15.1078C36.357 15.1078 38.6942 14.3403 40.5806 12.9456L41.2848 12.4256L42.7742 15.363V19.4322C42.7742 24.2008 38.8379 28.0809 34 28.0809C29.1621 28.0809 25.2258 24.2008 25.2258 19.4322ZM34 30.243C35.1461 30.243 36.2506 30.0679 37.2903 29.7447V31.9576L34 35.2009L30.7097 31.9576V29.7447C31.7494 30.0679 32.8539 30.243 34 30.243V30.243ZM29.3968 33.7209L30.5517 34.8593L29.6688 37.469C29.5614 37.7858 29.6085 38.1328 29.7972 38.4107L31.6935 41.2139L30.7667 43.9555C30.7097 44.1231 30.6965 44.3015 30.725 44.4756L31.609 49.7026H24.1082C25.0712 48.4431 25.7709 46.9783 26.101 45.3783H27.4194C29.2334 45.3783 30.7097 43.9231 30.7097 42.135C30.7097 40.3469 29.2334 38.8917 27.4194 38.8917H26.8929L27.4939 37.5177C27.9436 36.4906 28.1728 35.4009 28.2035 34.309L29.3968 33.7209ZM26.3226 41.0539H27.4194C28.0237 41.0539 28.5161 41.5393 28.5161 42.135C28.5161 42.7307 28.0237 43.2161 27.4194 43.2161H26.3226V41.0539ZM4.75342 31.3814C5.58697 30.0128 7.11148 29.162 8.73032 29.162C10.4501 29.162 12.0459 30.0041 13.0012 31.4139L13.3455 31.9231L15.1706 30.7241L14.8262 30.2149C13.8369 28.7533 12.3617 27.7263 10.6892 27.2701C13.1712 25.7522 16.3891 25.5057 19.0608 26.7046L22.1219 28.0787C23.3558 28.6322 24.3769 29.5306 25.0755 30.6776C26.1767 32.4863 26.3281 34.7231 25.4803 36.6604L25.4068 36.829L24.0139 34.0831C23.868 33.7966 23.6015 33.5879 23.2845 33.5144C22.9697 33.4409 22.6341 33.509 22.3742 33.7014L20.6194 34.9987C19.1102 36.1155 17.2402 36.7296 15.3548 36.7296C13.4695 36.7296 11.5995 36.1155 10.0903 34.9998L8.33548 33.7025C8.07445 33.509 7.73884 33.4398 7.42516 33.5155C7.10819 33.589 6.84168 33.7977 6.69581 34.0841L5.20968 37.015L4.58232 35.7782C3.86942 34.3728 3.93303 32.7285 4.75342 31.3814V31.3814ZM3.29032 43.2161C2.686 43.2161 2.19355 42.7307 2.19355 42.135C2.19355 41.5393 2.686 41.0539 3.29032 41.0539H4.3871V43.2161H3.29032ZM6.58065 43.2161V39.1469L8.07006 36.2096L8.77419 36.7296C10.6606 38.1242 12.9979 38.8917 15.3548 38.8917C17.7118 38.8917 20.049 38.1242 21.9355 36.7296L22.6396 36.2096L24.129 39.1469V43.2161C24.129 47.9848 20.1927 51.8648 15.3548 51.8648C10.517 51.8648 6.58065 47.9848 6.58065 43.2161ZM15.3548 54.027C16.501 54.027 17.6054 53.8518 18.6452 53.5286V55.7416L15.3548 58.9848L12.0645 55.7416V53.5286C13.1043 53.8518 14.2087 54.027 15.3548 54.027ZM3.29032 58.4475L10.585 57.3405L11.9066 58.6432L11.0237 61.2529C10.9315 61.5254 10.9535 61.8216 11.0829 62.0789L12.4835 64.8378H3.29032V58.4475ZM14.9359 64.8378L13.2479 61.5113L13.6395 60.3524L14.5783 61.2778C14.7933 61.4886 15.0741 61.5946 15.3548 61.5946C15.6356 61.5946 15.9164 61.4886 16.1303 61.2778L17.0691 60.3524L17.4606 61.5113L15.7738 64.8378H14.9359ZM29.9869 64.8378H18.2262L19.6257 62.0778C19.7562 61.8216 19.777 61.5243 19.6849 61.2519L18.802 58.6421L20.1236 57.3394L30.2227 58.8713C31.0245 58.9935 31.7714 59.2918 32.4338 59.7297C32.0905 60.1924 31.7889 60.6908 31.5531 61.2335L29.9869 64.8378ZM33.569 62.0865C34.3203 60.36 35.893 59.1589 37.7751 58.8724L47.8742 57.3405L49.1958 58.6432L48.3129 61.2529C48.2208 61.5254 48.2427 61.8216 48.3721 62.0789L49.7738 64.8378H32.3735L33.569 62.0865ZM52.2262 64.8378L50.5383 61.5113L50.9298 60.3524L51.8686 61.2778C52.0836 61.4886 52.3644 61.5946 52.6452 61.5946C52.9259 61.5946 53.2067 61.4886 53.4206 61.2778L54.3594 60.3524L54.751 61.5113L53.0641 64.8378H52.2262ZM64.7097 64.8378H55.5165L56.916 62.0778C57.0465 61.8216 57.0674 61.5243 56.9752 61.2519L56.0923 58.6421L57.4139 57.3394L64.7097 58.4475V64.8378ZM55.9355 55.7416L52.6452 58.9848L49.3548 55.7416V53.5286C50.3946 53.8518 51.499 54.027 52.6452 54.027C53.7913 54.027 54.8957 53.8518 55.9355 53.5286V55.7416Z" fill="white"/>
</svg>
